<svg xmlns="http://www.w3.org/2000/svg" viewBox="0 0 1200 800"><defs><linearGradient id="s" x1="0" y1="0" x2="0" y2="1"><stop offset="0" stop-color="#f7b267"/><stop offset=".55" stop-color="#f4845f"/><stop offset="1" stop-color="#c8566b"/></linearGradient></defs><rect width="1200" height="800" fill="url(#s)"/><circle cx="820" cy="300" r="90" fill="#fde2b3"/><path d="M0 560 L220 300 L360 450 L520 230 L760 520 L900 380 L1200 600 V800 H0Z" fill="#7a3b5e"/><path d="M520 230 L585 310 L560 305 L540 330 L515 300 L490 315Z" fill="#f6e1e8"/><path d="M0 640 L180 470 L340 600 L560 420 L780 640 L980 500 L1200 660 V800 H0Z" fill="#4e2a4f"/><path d="M0 720 Q300 640 600 700 T1200 690 V800 H0Z" fill="#2c1a33"/></svg>
